<svg width="94" height="96" viewBox="0 0 94 96" fill="none" xmlns="http://www.w3.org/2000/svg">
<path d="M93.9998 46.7418C93.9907 36.8275 90.8178 27.1724 84.9389 19.1695C79.0599 11.1665 70.7788 5.22952 61.2905 2.21503C51.8021 -0.799457 41.5969 -0.735574 32.1474 2.39746C22.6978 5.5305 14.4925 11.5707 8.71508 19.6466C2.9377 27.7225 -0.112974 37.4166 0.00319898 47.3302C0.119372 57.2439 3.39638 66.8645 9.36144 74.804C15.3265 82.7436 23.6712 88.5916 33.1916 91.5044C42.712 94.4172 52.9158 94.2441 62.331 91.0101C64.5097 90.2642 66.8763 90.2642 69.055 91.0101L83.0062 95.8118C83.5297 95.991 84.0886 96.0432 84.6365 95.9641C85.1844 95.885 85.7053 95.6769 86.1561 95.357C86.6069 95.0371 86.9745 94.6148 87.2282 94.125C87.482 93.6353 87.6147 93.0923 87.6152 92.5412V72.9684C87.62 71.3157 88.0234 69.6883 88.7914 68.223C92.2342 61.5824 94.0206 54.2145 93.9998 46.7418Z" fill="#FF3EA4"/>
<path d="M46.9659 72.9459C31.6404 72.9459 22.8127 62.2504 21.201 60.1225C20.7511 59.5254 20.5579 58.7747 20.6639 58.0357C20.77 57.2967 21.1666 56.63 21.7665 56.1821C22.3665 55.7342 23.1206 55.5419 23.863 55.6474C24.6053 55.753 25.2752 56.1478 25.7251 56.745C26.5395 57.8314 34.0721 67.3336 46.9941 67.3336C59.9162 67.3336 67.4488 57.8314 68.2632 56.745C68.7372 56.224 69.39 55.8984 70.0931 55.8323C70.7961 55.7661 71.4986 55.9643 72.0623 56.3878C72.626 56.8113 73.0101 57.4294 73.139 58.1205C73.2679 58.8117 73.1324 59.5259 72.759 60.1225C71.119 62.2673 62.2913 72.9459 46.9659 72.9459Z" fill="white"/>
</svg>
